<svg width="100" height="100" viewBox="0 0 100 100" fill="none" xmlns="http://www.w3.org/2000/svg">
<path d="M10 50C10 47.7909 11.7909 46 14 46H86C88.2091 46 90 47.7909 90 50C90 52.2091 88.2091 54 86 54H14C11.7909 54 10 52.2091 10 50Z" fill="#1E1E1E"/>
<path d="M39.0215 25.6242C39.632 24.9218 40.0016 24.0045 40.0016 23.0008C40.0016 20.7912 38.2104 19 36.0008 19C34.7498 19 33.6329 19.5742 32.8992 20.4734L10.8991 47.4733C10.3369 48.1623 10 49.0414 10 50C10 52.2096 11.7912 54.0016 14.0008 54.0016C15.2987 54.0016 16.4523 53.3835 17.1832 52.4257L39.0215 25.6242Z" fill="#1E1E1E"/>
<path d="M10.9487 52.5876C10.3569 51.8901 10 50.9864 10 50C10 47.7909 11.7909 46 14 46C15.2848 46 16.429 46.6056 17.161 47.547L39.0458 74.4056C39.6418 75.1042 40.0016 76.0105 40.0016 77.0008C40.0016 79.2104 38.2104 81.0016 36.0008 81.0016C34.7199 81.0016 33.5795 80.3996 32.8473 79.4631L10.9487 52.5876Z" fill="#1E1E1E"/>
</svg>
