<svg fill="none" height="32" viewBox="0 0 32 32" width="32" xmlns="http://www.w3.org/2000/svg"><path clip-rule="evenodd" d="m10.9848 5.84615c-1.17582 0-2.1848 1.02396-2.1848 2.35898v15.58977c0 1.335 1.00898 2.3589 2.1848 2.3589h10.0304c1.1761 0 2.1852-1.0244 2.1848-2.3599 0 0 0 .0001 0 0l-.0043-10.5375c-.0002-.6358-.2381-1.2392-.6514-1.679m0 0-4.7487-5.05237s0 .00001 0 0c-.4125-.43889-.9648-.67888-1.5333-.67888h-5.2775m-3.9848 2.35898c0-2.29024 1.75324-4.20513 3.9848-4.20513h5.2775c1.0677 0 2.0846.45158 2.8292 1.24371l4.7487 5.05239c.7429.7905 1.1551 1.8556 1.1555 2.9596l.0043 10.5375c.0008 2.2908-1.7525 4.2068-3.9848 4.2068h-10.0304c-2.23155 0-3.9848-1.9148-3.9848-4.2051z" fill="#1e1e1e" fill-rule="evenodd"/></svg>