<svg width="32" height="32" viewBox="0 0 32 32" fill="none" xmlns="http://www.w3.org/2000/svg">
	<path fill-rule="evenodd" clip-rule="evenodd" d="M16 4.25C12.8089 4.25 12.4087 4.26351 11.1555 4.3207C10.1807 4.34023 9.21632 4.5249 8.30329 4.86688C7.52275 5.16875 6.81389 5.63036 6.22213 6.22213C5.63036 6.81389 5.16875 7.52275 4.86688 8.30329C4.52491 9.21632 4.34023 10.1807 4.32071 11.1555C4.26351 12.4087 4.25 12.8089 4.25 16C4.25 19.1911 4.26351 19.5913 4.3207 20.8445C4.34023 21.8193 4.5249 22.7837 4.86688 23.6967C5.16875 24.4772 5.63036 25.1861 6.22213 25.7779C6.81389 26.3696 7.52275 26.8312 8.30329 27.1331C9.21632 27.4751 10.1807 27.6598 11.1555 27.6793C12.4087 27.7365 12.8089 27.75 16 27.75C19.1911 27.75 19.5913 27.7365 20.8445 27.6793C21.8193 27.6598 22.7837 27.4751 23.6967 27.1331C24.4772 26.8312 25.1861 26.3696 25.7779 25.7779C26.3696 25.1861 26.8312 24.4772 27.1331 23.6967C27.4751 22.7837 27.6598 21.8193 27.6793 20.8445C27.7365 19.5913 27.75 19.1911 27.75 16C27.75 12.8089 27.7365 12.4087 27.6793 11.1555C27.6598 10.1807 27.4751 9.21632 27.1331 8.30329C26.8312 7.52275 26.3696 6.81389 25.7779 6.22213C25.1861 5.63036 24.4772 5.16875 23.6967 4.86688C22.7837 4.52491 21.8193 4.34023 20.8445 4.32071C19.5913 4.26351 19.1911 4.25 16 4.25ZM12.6478 10.9831C13.6401 10.3201 14.8067 9.96622 16 9.96622C17.6003 9.96622 19.135 10.6019 20.2666 11.7335C21.3981 12.865 22.0338 14.3997 22.0338 16C22.0338 17.1934 21.6799 18.3599 21.0169 19.3522C20.3539 20.3444 19.4116 21.1178 18.3091 21.5745C17.2065 22.0312 15.9933 22.1507 14.8229 21.9178C13.6525 21.685 12.5773 21.1104 11.7335 20.2665C10.8897 19.4227 10.315 18.3476 10.0822 17.1771C9.84936 16.0067 9.96885 14.7935 10.4255 13.691C10.8822 12.5884 11.6556 11.6461 12.6478 10.9831ZM13.824 19.2566C14.4681 19.687 15.2254 19.9167 16 19.9167C17.0388 19.9167 18.035 19.504 18.7695 18.7695C19.504 18.035 19.9167 17.0388 19.9167 16C19.9167 15.2254 19.687 14.4681 19.2566 13.824C18.8262 13.1799 18.2145 12.6779 17.4989 12.3815C16.7832 12.085 15.9957 12.0075 15.2359 12.1586C14.4762 12.3097 13.7783 12.6827 13.2305 13.2305C12.6828 13.7783 12.3097 14.4761 12.1586 15.2359C12.0075 15.9957 12.0851 16.7832 12.3815 17.4988C12.6779 18.2145 13.1799 18.8262 13.824 19.2566ZM21.4888 8.55545C21.7207 8.40052 21.9933 8.31782 22.2722 8.31782C22.4574 8.31782 22.6407 8.35429 22.8118 8.42515C22.9829 8.49601 23.1383 8.59987 23.2692 8.7308C23.4002 8.86173 23.504 9.01717 23.5749 9.18824C23.6457 9.35931 23.6822 9.54266 23.6822 9.72782C23.6822 10.0067 23.5995 10.2793 23.4446 10.5112C23.2896 10.7431 23.0694 10.9238 22.8118 11.0305C22.5541 11.1372 22.2706 11.1651 21.9971 11.1107C21.7236 11.0563 21.4724 10.922 21.2752 10.7248C21.078 10.5277 20.9437 10.2764 20.8893 10.0029C20.8349 9.72939 20.8628 9.44588 20.9695 9.18824C21.0763 8.9306 21.257 8.71038 21.4888 8.55545Z" fill="#1E1E1E"/>
</svg>
