<svg width="32" height="32" viewBox="0 0 32 32" fill="none" xmlns="http://www.w3.org/2000/svg">
	<path fill-rule="evenodd" clip-rule="evenodd" d="M28 16C28 22.6274 22.6274 28 16 28C9.37258 28 4 22.6274 4 16C4 9.37258 9.37258 4 16 4C22.6274 4 28 9.37258 28 16ZM10.2918 19.36C11.4955 19.36 12.5515 18.7285 13.1459 17.779C13.7403 18.7285 14.7963 19.36 16 19.36C17.2037 19.36 18.2597 18.7285 18.8541 17.779C19.4485 18.7285 20.5045 19.36 21.7082 19.36C23.566 19.36 25.072 17.8557 25.072 16C25.072 14.1443 23.566 12.64 21.7082 12.64C20.5045 12.64 19.4485 13.2715 18.8541 14.221C18.2597 13.2715 17.2037 12.64 16 12.64C14.7963 12.64 13.7403 13.2715 13.1459 14.221C12.5515 13.2715 11.4955 12.64 10.2918 12.64C8.43401 12.64 6.928 14.1443 6.928 16C6.928 17.8557 8.43401 19.36 10.2918 19.36ZM18.8541 14.221C19.1771 14.7369 19.3638 15.3467 19.3638 16C19.3638 16.6533 19.1771 17.2631 18.8541 17.779C18.5311 17.2631 18.3445 16.6533 18.3445 16C18.3445 15.3467 18.5311 14.7369 18.8541 14.221ZM13.1459 14.221C13.4689 14.7369 13.6556 15.3467 13.6556 16C13.6556 16.6533 13.4689 17.2631 13.1459 17.779C12.8229 17.2631 12.6362 16.6533 12.6362 16C12.6362 15.3467 12.8229 14.7369 13.1459 14.221Z" fill="#1E1E1E"/>
</svg>
