<svg width="32" height="32" viewBox="0 0 32 32" fill="none" xmlns="http://www.w3.org/2000/svg">
	<path d="M25.3715 5.00012H6.62384C6.1983 4.9953 5.78826 5.1596 5.48378 5.45691C5.1793 5.75423 5.0053 6.16025 5 6.58578V25.4124C5.00512 25.8382 5.179 26.2445 5.48347 26.5421C5.78793 26.8397 6.19808 27.0044 6.62384 26.9998H25.3715C25.7978 27.0048 26.2087 26.8404 26.514 26.5428C26.8193 26.2452 26.9941 25.8387 27 25.4124V6.58578C26.9939 6.1597 26.819 5.75345 26.5137 5.45617C26.2084 5.1589 25.7976 4.99488 25.3715 5.00012ZM11.5249 23.7468H8.2617V13.2479H11.5249V23.7468ZM9.89404 11.8127C9.51985 11.8129 9.154 11.7021 8.84277 11.4944C8.53154 11.2866 8.2889 10.9913 8.14554 10.6456C8.00218 10.3 7.96454 9.91961 8.03738 9.55257C8.11022 9.18554 8.29027 8.84835 8.55475 8.58364C8.81923 8.31894 9.15628 8.13861 9.52325 8.06547C9.89022 7.99232 10.2706 8.02964 10.6164 8.17272C10.9622 8.31579 11.2577 8.55818 11.4657 8.86924C11.6737 9.18029 11.7848 9.54605 11.7849 9.92024C11.7849 10.4219 11.5858 10.903 11.2312 11.2579C10.8766 11.6127 10.3957 11.8123 9.89404 11.8127ZM23.7465 23.7468H20.4857V18.6412C20.4857 17.4231 20.4633 15.8571 18.7901 15.8571C17.0921 15.8571 16.8321 17.1835 16.8321 18.553V23.7468H13.5714V13.2479H16.7015V14.6824H16.7449C17.058 14.1468 17.5104 13.7063 18.0541 13.4076C18.5978 13.109 19.2124 12.9635 19.8322 12.9866C23.1364 12.9866 23.7465 15.1611 23.7465 17.9879L23.7465 23.7468Z" fill="#1E1E1E"/>
</svg>
