<svg width="32" height="32" viewBox="0 0 32 32" fill="none" xmlns="http://www.w3.org/2000/svg">
<path d="M26.9112 9.07523C26.5724 6.63525 24.3771 4.71239 21.7747 4.33979C21.3357 4.27683 19.6722 4.04769 15.8187 4.04769H15.7899C11.9354 4.04769 11.1084 4.27683 10.6694 4.33979C8.13946 4.70207 5.82909 6.42986 5.26855 8.89871C4.99894 10.1146 4.97016 11.4625 5.02025 12.699C5.09165 14.4722 5.1055 16.2423 5.27175 18.0083C5.38668 19.1814 5.58717 20.3451 5.87172 21.4907C6.40455 23.6066 8.56147 25.3674 10.6747 26.0858C12.9372 26.835 15.3704 26.9593 17.7017 26.445C17.9582 26.3872 18.2118 26.3201 18.4626 26.2437C19.0285 26.0693 19.6924 25.8742 20.1805 25.5316C20.1872 25.5267 20.1927 25.5205 20.1965 25.5134C20.2004 25.5063 20.2026 25.4983 20.2028 25.4903V23.779C20.2027 23.7715 20.2009 23.764 20.1974 23.7573C20.1939 23.7505 20.189 23.7446 20.1828 23.74C20.1767 23.7353 20.1696 23.732 20.162 23.7304C20.1544 23.7288 20.1465 23.7288 20.1389 23.7305C18.6452 24.0761 17.1146 24.2493 15.5789 24.2466C12.9361 24.2466 12.2252 23.0317 12.0217 22.526C11.8581 22.0889 11.7542 21.633 11.7126 21.1698C11.7122 21.162 11.7137 21.1542 11.717 21.1471C11.7202 21.14 11.7252 21.1337 11.7314 21.1288C11.7376 21.1238 11.745 21.1204 11.7528 21.1188C11.7607 21.1171 11.7688 21.1172 11.7766 21.1192C13.2454 21.4624 14.7511 21.6356 16.262 21.6353C16.6254 21.6353 16.9877 21.6353 17.3511 21.626C18.8708 21.5847 20.4725 21.5093 21.9676 21.2265C22.0049 21.2193 22.0422 21.2131 22.0742 21.2038C24.4325 20.7652 26.6768 19.3883 26.9048 15.9017C26.9134 15.7645 26.9347 14.464 26.9347 14.3216C26.9358 13.8375 27.0956 10.8877 26.9112 9.07523ZM23.2816 17.7751H20.8018V11.8919C20.8018 10.6533 20.2689 10.0217 19.1851 10.0217C17.9937 10.0217 17.3969 10.769 17.3969 12.2449V15.4652H14.932V12.2449C14.932 10.769 14.3342 10.0217 13.1428 10.0217C12.0654 10.0217 11.5272 10.6533 11.5262 11.8919V17.7751H9.04848V11.7134C9.04848 10.4748 9.37494 9.49083 10.0278 8.76144C10.7013 8.03379 11.5848 7.66017 12.6814 7.66017C13.9506 7.66017 14.9097 8.13287 15.5491 9.07729L16.1661 10.0805L16.7842 9.07729C17.4236 8.13287 18.3827 7.66017 19.6498 7.66017C20.7453 7.66017 21.6287 8.03379 22.3043 8.76144C22.9573 9.49013 23.2837 10.4741 23.2837 11.7134L23.2816 17.7751Z" fill="#1E1E1E"/>
</svg>
