<svg width="32" height="32" viewBox="0 0 32 32" fill="none" xmlns="http://www.w3.org/2000/svg">
	<path d="M17.5267 16.2167C17.5176 17.5499 17.1139 18.8506 16.3665 19.9546C15.6192 21.0587 14.5617 21.9168 13.3273 22.4206C12.093 22.9245 10.7371 23.0516 9.43059 22.7859C8.12411 22.5202 6.92556 21.8736 5.98608 20.9276C5.04659 19.9816 4.40824 18.7787 4.15152 17.4704C3.8948 16.1621 4.0312 14.8071 4.54353 13.5763C5.05586 12.3454 5.92117 11.2938 7.03035 10.5541C8.13953 9.81434 9.44291 9.41959 10.7761 9.41962C12.5727 9.42579 14.2932 10.1454 15.5591 11.4201C16.8251 12.6948 17.5329 14.4202 17.5267 16.2167ZM24.9323 16.2167C24.9323 19.7502 23.4211 22.6157 21.5569 22.6157C19.6927 22.6157 18.1815 19.7502 18.1815 16.2167C18.1815 12.6833 19.6925 9.81775 21.5567 9.81775C23.4209 9.81775 24.9321 12.6824 24.9321 16.2167H24.9323ZM27.9614 16.2167C27.9614 19.3818 27.43 21.9492 26.7743 21.9492C26.1185 21.9492 25.5873 19.3825 25.5873 16.2167C25.5873 13.051 26.1188 10.4843 26.7743 10.4843C27.4297 10.4843 27.9614 13.0507 27.9614 16.2167Z" fill="#1E1E1E"/>
</svg>
