<svg width="26" height="18" viewBox="0 0 26 18" fill="none" xmlns="http://www.w3.org/2000/svg">
<path d="M0 16.8387C0 16.1973 0.519928 15.6774 1.16129 15.6774H24.8387C25.4801 15.6774 26 16.1973 26 16.8387C26 17.4801 25.4801 18 24.8387 18H1.16129C0.519928 18 0 17.4801 0 16.8387Z" fill="#1E1E1E"/>
<path d="M0 1.16129C0 0.519927 0.519928 0 1.16129 0H24.8387C25.4801 0 26 0.519927 26 1.16129C26 1.80265 25.4801 2.32258 24.8387 2.32258H1.16129C0.519928 2.32258 0 1.80265 0 1.16129Z" fill="#1E1E1E"/>
<path d="M0 9C0 8.35864 0.519928 7.83871 1.16129 7.83871H16.0778C16.7192 7.83871 17.2391 8.35864 17.2391 9C17.2391 9.64137 16.7192 10.1613 16.0778 10.1613H1.16129C0.519928 10.1613 0 9.64137 0 9Z" fill="#1E1E1E"/>
</svg>
