<svg width="26" height="18" viewBox="0 0 26 18" fill="none" xmlns="http://www.w3.org/2000/svg">
<path d="M0 16C0 14.8954 0.895431 14 2 14H24C25.1046 14 26 14.8954 26 16C26 17.1046 25.1046 18 24 18H2C0.89543 18 0 17.1046 0 16Z" fill="#1E1E1E"/>
<path d="M0 2C0 0.895431 0.895431 0 2 0H24C25.1046 0 26 0.895431 26 2C26 3.10457 25.1046 4 24 4H2C0.89543 4 0 3.10457 0 2Z" fill="#1E1E1E"/>
<path d="M0 9C0 7.89543 0.895431 7 2 7H15C16.1046 7 17 7.89543 17 9C17 10.1046 16.1046 11 15 11H2C0.89543 11 0 10.1046 0 9Z" fill="#1E1E1E"/>
</svg>
