<svg width="32" height="32" viewBox="0 0 32 32" fill="none" xmlns="http://www.w3.org/2000/svg">
<path d="M3 23.8387C3 23.1973 3.51993 22.6774 4.16129 22.6774H27.8387C28.4801 22.6774 29 23.1973 29 23.8387C29 24.4801 28.4801 25 27.8387 25H4.16129C3.51993 25 3 24.4801 3 23.8387Z" fill="#1E1E1E"/>
<path d="M3 8.16129C3 7.51993 3.51993 7 4.16129 7H27.8387C28.4801 7 29 7.51993 29 8.16129C29 8.80265 28.4801 9.32258 27.8387 9.32258H4.16129C3.51993 9.32258 3 8.80265 3 8.16129Z" fill="#1E1E1E"/>
<path d="M3 16C3 15.3586 3.51993 14.8387 4.16129 14.8387H19.0778C19.7192 14.8387 20.2391 15.3586 20.2391 16C20.2391 16.6414 19.7192 17.1613 19.0778 17.1613H4.16129C3.51993 17.1613 3 16.6414 3 16Z" fill="#1E1E1E"/>
</svg>
