<svg width="32" height="32" viewBox="0 0 32 32" fill="none" xmlns="http://www.w3.org/2000/svg">
	<path d="M28.2403 9.81073C28.096 9.26713 27.8114 8.771 27.415 8.37201C27.0185 7.97302 26.5243 7.68518 25.9816 7.53732C23.9892 7 16 7 16 7C16 7 8.01079 7 6.0184 7.53732C5.47575 7.68518 4.98147 7.97302 4.58506 8.37201C4.18865 8.771 3.90402 9.26713 3.75967 9.81073C3.39139 11.853 3.21268 13.9249 3.2258 16C3.21268 18.0751 3.39139 20.147 3.75967 22.1893C3.90402 22.7329 4.18865 23.229 4.58506 23.628C4.98148 24.027 5.47576 24.3148 6.01841 24.4627C8.0108 25 16 25 16 25C16 25 23.9892 25 25.9816 24.4627C26.5242 24.3148 27.0185 24.027 27.4149 23.628C27.8114 23.229 28.096 22.7329 28.2403 22.1893C28.6086 20.147 28.7873 18.0751 28.7742 16C28.7873 13.9249 28.6086 11.853 28.2403 9.81073V9.81073ZM13.3871 19.7987V12.2013L20.0645 16.0001L13.3871 19.7987Z" fill="#1E1E1E"/>
</svg>
