<svg width="150" height="150" viewBox="0 0 150 150" fill="none" xmlns="http://www.w3.org/2000/svg">
	<path fill-rule="evenodd" clip-rule="evenodd" d="M127.687 34.8525L127.683 34.8553L67.4282 70.6312L22.8738 35.2498L22.871 35.2476C21.9646 34.5145 20.808 34.0745 19.5522 34.0745C16.6357 34.0745 14.2715 36.4387 14.2715 39.3552V102.724C14.2715 109.569 19.4816 115.198 26.1531 115.86V115.926L122.534 115.925C129.822 115.921 135.728 110.012 135.728 102.724V102.722L135.728 102.668L135.728 102.667L135.728 39.3552C135.728 36.4387 133.364 34.0745 130.447 34.0745C129.438 34.0745 128.491 34.3589 127.687 34.8525ZM24.8329 102.724V50.292L94.183 105.364L27.4733 105.364C26.0151 105.364 24.8329 104.182 24.8329 102.724ZM125.166 102.749V48.6319L76.2783 77.6592L111.166 105.364L122.526 105.364C123.976 105.364 125.153 104.195 125.166 102.749Z" fill="#1E1E1E"/>
</svg>
