<svg width="100" height="100" viewBox="0 0 100 100" fill="none" xmlns="http://www.w3.org/2000/svg">
<path fill-rule="evenodd" clip-rule="evenodd" d="M89.9094 19.5893L89.9059 19.5915L44.2648 46.6907L10.516 19.8903L10.5139 19.8886C9.82733 19.3333 8.95125 19 8 19C5.79086 19 4 20.7909 4 23V71C4.00002 76.1853 7.94649 80.4487 13 80.9506V81L86.006 81C91.5261 80.9968 96.0001 76.5209 96.0001 71V70.9989L96 70.9578L96 70.9567L96 23C96 20.7909 94.2091 19 92 19C91.2356 19 90.5184 19.2154 89.9094 19.5893ZM12 71V31.2843L64.5308 73L14 73C12.8954 73 12 72.1045 12 71ZM88 71.0191V30.0269L50.9685 52.0143L77.395 73L86.0001 73C87.0983 73 87.9898 72.1148 88 71.0191Z" fill="#414347"/>
</svg>
